# xmcd
#
# Track frame offsets: 
#        150
#        35412
#        91910
#        135201
#        174440
#        225511
#
# Disc length: 4034 seconds
#
# Revision: 0
# Processed by: cddbd v1.5.2PL0 Copyright (c) Steve Scherf et al.
# Submitted via: ExactAudioCopy v1.0b1
#
DISCID=390fc006
DTITLE=Eric Clapton  - Scope-1975-08-30 - Disc 2
DYEAR=1900
DGENRE=
TTITLE0=Teach Me To Be Your Woman
TTITLE1=Stormy Monday
TTITLE2=Badge
TTITLE3=Carnival
TTITLE4=Little Wing
TTITLE5=Eyesight To The Blind
EXTD=
EXTT0=
EXTT1=
EXTT2=
EXTT3=
EXTT4=
EXTT5=
PLAYORDER=
